<svg width="120" height="120" viewBox="0 0 120 120" fill="none" xmlns="http://www.w3.org/2000/svg">
<g clip-path="url(#clip0_1840_2381)">
<path fill-rule="evenodd" clip-rule="evenodd" d="M76.0859 69.4391L76.3181 68.5102L83.052 89.1765L82.2393 90.3375V90.2214L82.0071 90.6858C62.618 116.461 21.5178 111.468 6.30836 85.229C-9.82988 57.3644 6.54056 20.56 38.1204 13.9421C41.3713 13.3616 44.7382 13.0133 48.1052 13.0133C63.0824 13.0133 78.8723 19.515 86.8834 32.6346L93.1529 15.5676H112.658L97.9131 56.5517L107.434 83.023C108.478 85.6934 111.381 87.2027 114.051 86.5061L114.864 86.2739L120.089 103.805L113.819 105.431C104.879 107.637 95.7072 103.109 92.3402 94.5172C91.5275 93.0078 90.7148 91.3824 90.1343 89.6409L86.6512 80.4688L86.419 80.1205V80.0044L78.6401 56.4356C74.3444 43.4321 66.3333 37.1626 59.9477 34.6083C56.4646 32.9829 52.5171 32.1702 48.3374 32.1702C32.1992 32.1702 19.1957 45.0576 19.1957 60.8475C19.1957 76.6374 32.1992 89.5248 48.3374 89.5248C61.3409 89.5248 72.3706 81.0493 76.0859 69.4391Z" fill="url(#paint0_linear_1840_2381)"/>
</g>
<defs>
<linearGradient id="paint0_linear_1840_2381" x1="0.154929" y1="14.3369" x2="116.257" y2="14.3369" gradientUnits="userSpaceOnUse">
<stop stop-color="#7A5FFF"/>
<stop offset="1" stop-color="#00E824"/>
</linearGradient>
<clipPath id="clip0_1840_2381">
<rect width="120" height="94.7368" fill="white" transform="translate(0 13)"/>
</clipPath>
</defs>
</svg>
