<svg width="124" height="121" viewBox="0 0 124 121" fill="none" xmlns="http://www.w3.org/2000/svg">
<path d="M62.0577 91.0193C79.5916 90.9851 93.7628 77.1405 93.7099 60.0965C93.6569 43.0526 79.4 29.2634 61.8661 29.2975C44.3322 29.3317 30.1611 43.1763 30.214 60.2202C30.2669 77.2642 44.5238 91.0534 62.0577 91.0193Z" fill="url(#paint0_linear_0_1)"/>
<path d="M61.8562 20.258C67.5791 20.2468 72.2045 15.728 72.1873 10.165C72.1701 4.60204 67.5168 0.101404 61.7939 0.112579C56.071 0.123754 51.4456 4.64251 51.4628 10.2055C51.48 15.7685 56.1333 20.2691 61.8562 20.258Z" fill="white"/>
<path d="M62.1238 120.125C67.8467 120.114 72.4721 115.595 72.4549 110.032C72.4377 104.469 67.7844 99.9686 62.0615 99.9798C56.3386 99.9909 51.7132 104.51 51.7304 110.073C51.7476 115.636 56.4009 120.136 62.1238 120.125Z" fill="white"/>
<path d="M32.8458 32.0029C36.8836 28.0614 36.8664 21.686 32.8075 17.7631C28.7486 13.8402 22.1849 13.8553 18.1471 17.7968C14.1092 21.7383 14.1264 28.1137 18.1853 32.0367C22.2442 35.9596 28.8079 35.9445 32.8458 32.0029Z" fill="white"/>
<path d="M105.775 102.464C109.813 98.5224 109.796 92.147 105.737 88.224C101.678 84.3011 95.1145 84.3162 91.0767 88.2578C87.0389 92.1993 87.056 98.5747 91.115 102.498C95.1739 106.421 101.738 106.405 105.775 102.464Z" fill="white"/>
<path d="M10.5585 70.3202C16.2814 70.3089 20.9068 65.7901 20.8896 60.2272C20.8723 54.6642 16.2191 50.1637 10.4961 50.1749C4.77316 50.1862 0.147756 54.705 0.164985 60.2679C0.182214 65.8309 4.83555 70.3314 10.5585 70.3202Z" fill="white"/>
<path d="M113.432 70.0939C119.155 70.0827 123.781 65.564 123.763 60.001C123.746 54.438 119.093 49.9373 113.37 49.9485C107.647 49.9597 103.022 54.4784 103.039 60.0414C103.056 65.6044 107.709 70.1051 113.432 70.0939Z" fill="white"/>
<path d="M105.594 31.8311C109.632 27.8896 109.614 21.5141 105.556 17.5912C101.497 13.6683 94.9329 13.6834 90.895 17.625C86.8572 21.5665 86.8744 27.9419 90.9333 31.8648C94.9922 35.7877 101.556 35.7726 105.594 31.8311Z" fill="white"/>
<path d="M33.0294 102.722C37.0672 98.7802 37.05 92.4048 32.9911 88.4819C28.9322 84.5589 22.3685 84.574 18.3307 88.5155C14.2928 92.4571 14.31 98.8325 18.3689 102.755C22.4278 106.678 28.9915 106.663 33.0294 102.722Z" fill="white"/>
<defs>
<linearGradient id="paint0_linear_0_1" x1="100.536" y1="10.9575" x2="-0.192807" y2="38.9381" gradientUnits="userSpaceOnUse">
<stop stop-color="white"/>
<stop offset="0.523958" stop-color="#D795FF"/>
<stop offset="1" stop-color="#7BC2FE"/>
</linearGradient>
</defs>
</svg>
