<svg width="81" height="80" viewBox="0 0 81 80" fill="none" xmlns="http://www.w3.org/2000/svg">
<path d="M79.6512 1.08554C79.6186 0.927459 79.5415 0.781961 79.4292 0.666098C79.3168 0.550234 79.1737 0.468808 79.0167 0.431364C68.5481 -2.12813 44.3598 6.99276 31.2549 20.0923C28.9175 22.4108 26.7867 24.9286 24.8866 27.6171C20.8453 27.2596 16.8041 27.5581 13.3599 29.0595C3.64202 33.3366 0.812637 44.4969 0.0244119 49.2977C-0.0202976 49.5605 -0.00343315 49.8301 0.0736784 50.0852C0.15079 50.3404 0.286046 50.5741 0.468809 50.7682C0.651571 50.9622 0.876856 51.1112 1.12694 51.2034C1.37703 51.2956 1.6451 51.3285 1.91007 51.2996L17.5155 49.5784C17.5266 50.7549 17.5976 51.9301 17.7282 53.0994C17.8067 53.9115 18.1672 54.6703 18.747 55.2443L24.79 61.273C25.3646 61.852 26.1231 62.2123 26.9349 62.2918C28.0977 62.4218 29.2663 62.4928 30.4363 62.5045L28.724 78.0903C28.6955 78.3552 28.7286 78.6231 28.821 78.873C28.9133 79.1229 29.0623 79.348 29.2562 79.5307C29.4502 79.7134 29.6838 79.8486 29.9388 79.9259C30.1937 80.0032 30.4632 80.0203 30.7259 79.976C35.5178 79.2074 46.6977 76.378 50.9498 66.6601C52.4512 63.2159 52.7586 59.1943 52.4119 55.1728C55.1069 53.2725 57.6312 51.1411 59.9563 48.8026C73.1023 35.7228 82.1714 12.0742 79.6512 1.08554ZM46.8407 33.199C45.6403 31.9994 44.8226 30.4707 44.4911 28.8063C44.1596 27.142 44.3292 25.4166 44.9784 23.8487C45.6276 22.2807 46.7272 20.9404 48.1382 19.9975C49.5492 19.0545 51.2081 18.5512 52.9052 18.5512C54.6023 18.5512 56.2612 19.0545 57.6722 19.9975C59.0832 20.9404 60.1828 22.2807 60.832 23.8487C61.4812 25.4166 61.6507 27.142 61.3192 28.8063C60.9878 30.4707 60.1701 31.9994 58.9697 33.199C58.1737 33.9961 57.2284 34.6285 56.1878 35.06C55.1472 35.4915 54.0317 35.7135 52.9052 35.7135C51.7787 35.7135 50.6632 35.4915 49.6226 35.06C48.582 34.6285 47.6367 33.9961 46.8407 33.199Z" fill="#815C98"/>
<path d="M24.1516 65.4466C23.1722 66.4279 21.6011 66.8104 19.71 67.1374C15.4615 67.8613 11.7098 64.1901 12.473 59.8951C12.7644 58.2668 13.6259 55.9843 14.1621 55.4481C14.2793 55.3332 14.3573 55.1842 14.385 55.0224C14.4128 54.8606 14.3888 54.6942 14.3166 54.5468C14.2444 54.3994 14.1276 54.2785 13.9827 54.2012C13.8379 54.124 13.6723 54.0944 13.5097 54.1165C11.1339 54.4072 8.92358 55.4844 7.23071 57.1765C3.02863 61.3821 2.63184 76.9876 2.63184 76.9876C2.63184 76.9876 18.2462 76.5908 22.4483 72.3851C24.1455 70.6935 25.224 68.4799 25.51 66.1008C25.5762 65.3537 24.6664 64.9086 24.1516 65.4466Z" fill="#815C98"/>
</svg>
