<svg width="90" height="78" viewBox="0 0 90 78" fill="none" xmlns="http://www.w3.org/2000/svg">
<g filter="url(#filter0_biii_0_1)">
<path fill-rule="evenodd" clip-rule="evenodd" d="M78.7885 66.0718C79.0151 66.1018 79.2416 66.1327 79.468 66.1645L80.6066 66.3243C85.5639 67.0199 89.9991 63.2414 89.9991 58.3226V54.5686C89.9991 51.0507 87.7477 47.9126 84.375 46.7294C80.4794 45.3628 76.4578 44.4728 72.398 44.0595C76.6336 47.1233 79.2606 52.0832 79.2606 57.4942V62.155C79.2606 63.5092 79.0967 64.8205 78.7885 66.0718ZM61.612 39.0648C63.3009 39.7622 65.1561 40.1476 67.1031 40.1476C74.9348 40.1476 81.2837 33.9112 81.2837 26.2183C81.2837 18.5254 74.9348 12.2891 67.1031 12.2891C66.8715 12.2891 66.6413 12.2945 66.4126 12.3053C67.8362 15.338 68.6319 18.7241 68.6319 22.296C68.6319 28.8596 65.9454 34.7958 61.612 39.0648Z" fill="#815C98"/>
<path fill-rule="evenodd" clip-rule="evenodd" d="M11.2105 66.0718C10.9839 66.1018 10.7574 66.1327 10.531 66.1645L9.39244 66.3243C4.43513 67.0199 -0.000101089 63.2414 -0.000101089 58.3226V54.5686C-0.000101089 51.0507 2.25131 47.9126 5.62407 46.7294C9.51963 45.3628 13.5413 44.4728 17.601 44.0595C13.3654 47.1233 10.7384 52.0832 10.7384 57.4942V62.155C10.7384 63.5092 10.9024 64.8205 11.2105 66.0718ZM28.3871 39.0648C26.6982 39.7622 24.8429 40.1476 22.896 40.1476C15.0642 40.1476 8.7153 33.9112 8.7153 26.2183C8.7153 18.5254 15.0642 12.2891 22.896 12.2891C23.1275 12.2891 23.3577 12.2945 23.5865 12.3053C22.1628 15.338 21.3672 18.7241 21.3672 22.296C21.3672 28.8596 24.0537 34.7958 28.3871 39.0648Z" fill="#815C98"/>
<path fill-rule="evenodd" clip-rule="evenodd" d="M62.3873 22.2938C62.3873 12.7427 54.6446 5 45.0934 5C35.5423 5 27.7996 12.7427 27.7996 22.2938C27.7996 31.8449 35.5423 39.5877 45.0934 39.5877C54.6446 39.5877 62.3873 31.8449 62.3873 22.2938Z" fill="#815C98"/>
<path fill-rule="evenodd" clip-rule="evenodd" d="M24.0298 47.7593C37.6509 42.8946 52.536 42.8946 66.1571 47.7593C70.2703 49.2283 73.016 53.1244 73.016 57.492V62.1528C73.016 68.2598 67.6071 72.9509 61.5615 72.0872L60.1729 71.8889C50.1707 70.46 40.0162 70.46 30.014 71.8889L28.6254 72.0872C22.5798 72.9509 17.1709 68.2598 17.1709 62.1528V57.492C17.1709 53.1244 19.9166 49.2283 24.0298 47.7593Z" fill="#815C98"/>
</g>
<g filter="url(#filter1_bii_0_1)">
<path d="M24.833 53.6007L8.52902 68.094C7.30479 65.4364 5.29238 63.2077 2.75757 61.7024L1.46629 60.9355C0.240545 60.2076 0.564659 58.3725 1.9677 58.0966L24.833 53.6007Z" fill="#E9DEFF"/>
</g>
<g filter="url(#filter2_bi_0_1)">
<path d="M24.9649 53.7329L9.6569 69.9509C12.0907 70.6713 14.2042 72.1862 15.6511 74.2472L17.6355 77.0739C18.4971 78.3013 20.4321 77.8916 20.7076 76.4234L24.9649 53.7329Z" fill="#D795FF"/>
</g>
<path d="M77.4872 0C70.2466 0 65 5.91601 65 12.481C65 14.5778 65.6107 16.7371 66.6824 18.7091C66.8818 19.0336 66.9067 19.4455 66.7696 19.8324L65.9347 22.6281C65.7477 23.3021 66.321 23.8013 66.9566 23.6016L69.474 22.8528C70.1594 22.6281 70.6953 22.9152 71.3321 23.3021C73.1516 24.3755 75.4185 24.9246 77.4623 24.9246C83.6436 24.9246 89.9246 20.1444 89.9246 12.4436C89.9246 5.80368 84.5658 0 77.4872 0Z" fill="#D795FF"/>
<path d="M82.5904 14.3351C81.543 14.3351 80.7021 13.4794 80.7021 12.4468C80.7021 11.3994 81.543 10.5586 82.5904 10.5586C83.6378 10.5586 84.4786 11.3994 84.4786 12.4468C84.4786 13.4794 83.6378 14.3351 82.5904 14.3351Z" fill="white"/>
<path d="M77.3033 14.3351C76.2559 14.3203 75.415 13.4795 75.415 12.4322C75.415 11.3996 76.2706 10.544 77.3033 10.5588C78.3506 10.5588 79.1915 11.3996 79.1915 12.4469C79.1915 13.4795 78.3506 14.3351 77.3033 14.3351Z" fill="white"/>
<path d="M72.0162 14.3351C70.9688 14.3203 70.1279 13.4795 70.1279 12.4322C70.1279 11.3996 70.9835 10.544 72.0162 10.5588C73.0635 10.5588 73.9044 11.3996 73.9044 12.4469C73.9044 13.4795 73.0635 14.3351 72.0162 14.3351Z" fill="white"/>
<defs>
<filter id="filter0_biii_0_1" x="-10.0164" y="-5.01626" width="110.032" height="87.2225" filterUnits="userSpaceOnUse" color-interpolation-filters="sRGB">
<feFlood flood-opacity="0" result="BackgroundImageFix"/>
<feGaussianBlur in="BackgroundImageFix" stdDeviation="5.00813"/>
<feComposite in2="SourceAlpha" operator="in" result="effect1_backgroundBlur_0_1"/>
<feBlend mode="normal" in="SourceGraphic" in2="effect1_backgroundBlur_0_1" result="shape"/>
<feColorMatrix in="SourceAlpha" type="matrix" values="0 0 0 0 0 0 0 0 0 0 0 0 0 0 0 0 0 0 127 0" result="hardAlpha"/>
<feOffset dy="2.50406"/>
<feGaussianBlur stdDeviation="5.00813"/>
<feComposite in2="hardAlpha" operator="arithmetic" k2="-1" k3="1"/>
<feColorMatrix type="matrix" values="0 0 0 0 1 0 0 0 0 1 0 0 0 0 1 0 0 0 0.3 0"/>
<feBlend mode="normal" in2="shape" result="effect2_innerShadow_0_1"/>
<feColorMatrix in="SourceAlpha" type="matrix" values="0 0 0 0 0 0 0 0 0 0 0 0 0 0 0 0 0 0 127 0" result="hardAlpha"/>
<feOffset dy="-2.50406"/>
<feGaussianBlur stdDeviation="5.00813"/>
<feComposite in2="hardAlpha" operator="arithmetic" k2="-1" k3="1"/>
<feColorMatrix type="matrix" values="0 0 0 0 1 0 0 0 0 1 0 0 0 0 1 0 0 0 0.5 0"/>
<feBlend mode="normal" in2="effect2_innerShadow_0_1" result="effect3_innerShadow_0_1"/>
<feColorMatrix in="SourceAlpha" type="matrix" values="0 0 0 0 0 0 0 0 0 0 0 0 0 0 0 0 0 0 127 0" result="hardAlpha"/>
<feOffset dy="-2.50406"/>
<feGaussianBlur stdDeviation="1.25203"/>
<feComposite in2="hardAlpha" operator="arithmetic" k2="-1" k3="1"/>
<feColorMatrix type="matrix" values="0 0 0 0 0.879 0 0 0 0 0.725 0 0 0 0 1 0 0 0 0.5 0"/>
<feBlend mode="normal" in2="effect3_innerShadow_0_1" result="effect4_innerShadow_0_1"/>
</filter>
<filter id="filter1_bii_0_1" x="-25.9861" y="26.9075" width="77.5123" height="67.8798" filterUnits="userSpaceOnUse" color-interpolation-filters="sRGB">
<feFlood flood-opacity="0" result="BackgroundImageFix"/>
<feGaussianBlur in="BackgroundImageFix" stdDeviation="13.3466"/>
<feComposite in2="SourceAlpha" operator="in" result="effect1_backgroundBlur_0_1"/>
<feBlend mode="normal" in="SourceGraphic" in2="effect1_backgroundBlur_0_1" result="shape"/>
<feColorMatrix in="SourceAlpha" type="matrix" values="0 0 0 0 0 0 0 0 0 0 0 0 0 0 0 0 0 0 127 0" result="hardAlpha"/>
<feOffset dy="1.24155"/>
<feGaussianBlur stdDeviation="0.620773"/>
<feComposite in2="hardAlpha" operator="arithmetic" k2="-1" k3="1"/>
<feColorMatrix type="matrix" values="0 0 0 0 1 0 0 0 0 1 0 0 0 0 1 0 0 0 0.15 0"/>
<feBlend mode="normal" in2="shape" result="effect2_innerShadow_0_1"/>
<feColorMatrix in="SourceAlpha" type="matrix" values="0 0 0 0 0 0 0 0 0 0 0 0 0 0 0 0 0 0 127 0" result="hardAlpha"/>
<feOffset/>
<feGaussianBlur stdDeviation="10.5531"/>
<feComposite in2="hardAlpha" operator="arithmetic" k2="-1" k3="1"/>
<feColorMatrix type="matrix" values="0 0 0 0 1 0 0 0 0 1 0 0 0 0 1 0 0 0 0.05 0"/>
<feBlend mode="normal" in2="effect2_innerShadow_0_1" result="effect3_innerShadow_0_1"/>
</filter>
<filter id="filter2_bi_0_1" x="-19.5195" y="24.5566" width="73.6607" height="82.4178" filterUnits="userSpaceOnUse" color-interpolation-filters="sRGB">
<feFlood flood-opacity="0" result="BackgroundImageFix"/>
<feGaussianBlur in="BackgroundImageFix" stdDeviation="14.5882"/>
<feComposite in2="SourceAlpha" operator="in" result="effect1_backgroundBlur_0_1"/>
<feBlend mode="normal" in="SourceGraphic" in2="effect1_backgroundBlur_0_1" result="shape"/>
<feColorMatrix in="SourceAlpha" type="matrix" values="0 0 0 0 0 0 0 0 0 0 0 0 0 0 0 0 0 0 127 0" result="hardAlpha"/>
<feOffset/>
<feGaussianBlur stdDeviation="10.5531"/>
<feComposite in2="hardAlpha" operator="arithmetic" k2="-1" k3="1"/>
<feColorMatrix type="matrix" values="0 0 0 0 1 0 0 0 0 1 0 0 0 0 1 0 0 0 0.05 0"/>
<feBlend mode="normal" in2="shape" result="effect2_innerShadow_0_1"/>
</filter>
</defs>
</svg>
