<svg width="64" height="80" viewBox="0 0 64 80" fill="none" xmlns="http://www.w3.org/2000/svg">
<g filter="url(#filter0_biii_0_1)">
<path d="M0 8V72C0 74.1217 0.831387 76.1566 2.31127 77.6568C3.79114 79.1571 5.79829 80 7.89116 80H55.2381C57.331 80 59.3381 79.1571 60.818 77.6568C62.2979 76.1566 63.1293 74.1217 63.1293 72V25.368C63.1291 24.3022 62.9189 23.2472 62.5111 22.265C62.1032 21.2827 61.5058 20.393 60.754 19.648L43.2356 2.28C41.7614 0.818631 39.7816 0.000260158 37.7197 0H7.89116C5.79829 0 3.79114 0.842854 2.31127 2.34315C0.831387 3.84344 0 5.87827 0 8Z" fill="#815C98"/>
</g>
<path d="M31.0962 59.3179C26.0605 59.3179 21.6704 57.7385 17.9259 54.5798C14.4778 51.6713 12.3682 48.0678 11.5971 43.7691C11.4911 43.1779 11.9583 42.6512 12.559 42.6512H13.0871C13.5766 42.6512 13.9912 43.0066 14.0928 43.4855C14.8833 47.211 16.7744 50.3377 19.7659 52.8655C22.9781 55.5798 26.7549 56.9369 31.0962 56.9369C35.9319 56.9369 40.0335 55.3203 43.4012 52.0869C46.7688 48.8536 48.4534 44.9147 48.4551 40.2703C48.4567 35.6258 46.7721 31.6869 43.4012 28.4536C40.0302 25.2203 35.9286 23.6036 31.0962 23.6036C28.5288 23.6036 26.1167 24.1242 23.8601 25.1655C22.3063 25.8814 20.8778 26.7836 19.5748 27.872C18.9012 28.4346 19.3293 29.4631 20.207 29.4631H23.0362C23.5884 29.4631 24.0362 29.9108 24.0362 30.4631V30.8441C24.0362 31.3964 23.5885 31.8441 23.0362 31.8441H14.7374C14.1851 31.8441 13.7374 31.3964 13.7374 30.8441V22.9584C13.7374 22.4061 14.1851 21.9584 14.7374 21.9584H15.2173C15.7695 21.9584 16.2173 22.4061 16.2173 22.9584V25.1378C16.2173 26.0413 17.3508 26.5094 18.0471 25.9335C19.5237 24.712 21.1605 23.7076 22.9574 22.9203C25.5332 21.7917 28.2461 21.2258 31.0962 21.2227C33.8455 21.2227 36.4229 21.7195 38.8284 22.7131C41.2338 23.7068 43.335 25.0671 45.1321 26.7941C46.9291 28.5211 48.3459 30.5385 49.3825 32.8465C50.4191 35.1544 50.9365 37.629 50.9349 40.2703C50.9332 42.9115 50.4158 45.3862 49.3825 47.6941C48.3492 50.002 46.9324 52.0195 45.1321 53.7465C43.3317 55.4734 41.2305 56.8338 38.8284 57.8274C36.4262 58.8211 33.8489 59.3179 31.0962 59.3179ZM39.7341 48.7806C39.3473 49.1526 38.7357 49.1529 38.3486 48.7812L30.3052 41.0607C30.1087 40.8721 29.9977 40.6116 29.9977 40.3393V29.3655C29.9977 28.8132 30.4454 28.3655 30.9977 28.3655H31.4775C32.0298 28.3655 32.4775 28.8132 32.4775 29.3655V39.3489C32.4775 39.6211 32.5885 39.8816 32.7849 40.0702L40.0441 47.0399C40.4538 47.4333 40.454 48.0885 40.0446 48.4821L39.7341 48.7806Z" fill="#D795FF"/>
<defs>
<filter id="filter0_biii_0_1" x="-10.0163" y="-10.0163" width="83.1618" height="100.033" filterUnits="userSpaceOnUse" color-interpolation-filters="sRGB">
<feFlood flood-opacity="0" result="BackgroundImageFix"/>
<feGaussianBlur in="BackgroundImageFix" stdDeviation="5.00813"/>
<feComposite in2="SourceAlpha" operator="in" result="effect1_backgroundBlur_0_1"/>
<feBlend mode="normal" in="SourceGraphic" in2="effect1_backgroundBlur_0_1" result="shape"/>
<feColorMatrix in="SourceAlpha" type="matrix" values="0 0 0 0 0 0 0 0 0 0 0 0 0 0 0 0 0 0 127 0" result="hardAlpha"/>
<feOffset dy="2.50406"/>
<feGaussianBlur stdDeviation="5.00813"/>
<feComposite in2="hardAlpha" operator="arithmetic" k2="-1" k3="1"/>
<feColorMatrix type="matrix" values="0 0 0 0 1 0 0 0 0 1 0 0 0 0 1 0 0 0 0.3 0"/>
<feBlend mode="normal" in2="shape" result="effect2_innerShadow_0_1"/>
<feColorMatrix in="SourceAlpha" type="matrix" values="0 0 0 0 0 0 0 0 0 0 0 0 0 0 0 0 0 0 127 0" result="hardAlpha"/>
<feOffset dy="-2.50406"/>
<feGaussianBlur stdDeviation="5.00813"/>
<feComposite in2="hardAlpha" operator="arithmetic" k2="-1" k3="1"/>
<feColorMatrix type="matrix" values="0 0 0 0 1 0 0 0 0 1 0 0 0 0 1 0 0 0 0.5 0"/>
<feBlend mode="normal" in2="effect2_innerShadow_0_1" result="effect3_innerShadow_0_1"/>
<feColorMatrix in="SourceAlpha" type="matrix" values="0 0 0 0 0 0 0 0 0 0 0 0 0 0 0 0 0 0 127 0" result="hardAlpha"/>
<feOffset dy="-2.50406"/>
<feGaussianBlur stdDeviation="1.25203"/>
<feComposite in2="hardAlpha" operator="arithmetic" k2="-1" k3="1"/>
<feColorMatrix type="matrix" values="0 0 0 0 0.879 0 0 0 0 0.725 0 0 0 0 1 0 0 0 0.5 0"/>
<feBlend mode="normal" in2="effect3_innerShadow_0_1" result="effect4_innerShadow_0_1"/>
</filter>
</defs>
</svg>
