<svg width="80" height="80" viewBox="0 0 80 80" fill="none" xmlns="http://www.w3.org/2000/svg">
<g filter="url(#filter0_biii_0_1)">
<path d="M20.0007 48.8712H16.9238C12.6815 48.8712 9.23151 52.2962 9.23151 56.5078V71.7809C9.23151 75.9925 12.6815 79.4175 16.9238 79.4175H20.0007C22.545 79.4175 24.6161 77.3614 24.6161 74.8356V53.4532C24.6161 50.9274 22.545 48.8712 20.0007 48.8712Z" fill="#815C98"/>
</g>
<g filter="url(#filter1_bii_0_1)">
<path d="M5.82462 54.9844H4.61539C2.06635 54.9844 0 57.0357 0 59.5663V68.7302C0 71.2608 2.06635 73.3121 4.61539 73.3121H5.82962C6.05577 73.3121 6.23577 73.1191 6.21193 72.896C6.17289 72.5309 6.15385 72.1604 6.15385 71.7848C6.15385 57.833 6.12058 56.2167 6.20712 55.4053C6.23116 55.1799 6.05289 54.9844 5.82462 54.9844Z" fill="#815C98"/>
</g>
<g filter="url(#filter2_biii_0_1)">
<path d="M39.9791 5.3374e-06C17.9896 0.0112693 0 18.2235 0 40.0536V41.2375C0 43.228 1.28654 44.9258 3.07692 45.5565V51.6282C3.07692 51.8596 3.28327 52.039 3.51404 52.006C4.17135 51.9121 4.73846 51.9243 5.76693 51.9279C5.97981 51.9287 6.15385 51.7574 6.15385 51.5461V45.8194H7.69231C10.2414 45.8194 12.3077 43.7681 12.3077 41.2375V39.9763C12.3077 24.7803 24.6137 12.2615 39.9206 12.2185C55.2262 12.1758 67.6923 24.5252 67.6923 39.7102V41.2375C67.6923 43.7681 69.7587 45.8194 72.3077 45.8194H73.8462V51.5459C73.8462 51.7573 74.0206 51.9287 74.2335 51.9277C75.2143 51.9239 75.8145 51.9117 76.4872 52.0066C76.7175 52.039 76.9229 51.8596 76.9229 51.6286V45.5564C78.7133 44.9256 79.9998 43.2278 79.9998 41.2373V39.71C80 17.8073 62.0445 -0.0112586 39.9791 5.3374e-06Z" fill="#815C98"/>
</g>
<g filter="url(#filter3_biii_0_1)">
<path d="M60.0001 79.4174H63.0771C67.3194 79.4174 70.7694 75.9924 70.7694 71.7808V56.5077C70.7694 52.2961 67.3194 48.8711 63.0771 48.8711H60.0001C57.4559 48.8711 55.3848 50.9272 55.3848 53.453V74.8354C55.3848 77.3612 57.4559 79.4174 60.0001 79.4174Z" fill="#815C98"/>
</g>
<g filter="url(#filter4_bii_0_1)">
<path d="M75.3848 54.9844H74.1706C73.9444 54.9844 73.7644 55.1774 73.7883 55.4006C73.8273 55.7654 73.8463 56.136 73.8463 56.5117C73.8463 70.4635 73.8796 72.0798 73.7931 72.8912C73.769 73.1165 73.9473 73.3121 74.1756 73.3121H75.3848C77.9338 73.3121 80.0002 71.2608 80.0002 68.7302V59.5663C80.0002 57.0357 77.9338 54.9844 75.3848 54.9844Z" fill="#815C98"/>
</g>
<path d="M54.9339 66.3964H50.045L45.1561 54.9297L37.008 71.3106L32.1191 61.4821L28.8598 66.3964H25.6006" stroke="#D795FF" stroke-width="2" stroke-linecap="round" stroke-linejoin="round"/>
<defs>
<filter id="filter0_biii_0_1" x="-0.784753" y="38.855" width="35.4172" height="50.5788" filterUnits="userSpaceOnUse" color-interpolation-filters="sRGB">
<feFlood flood-opacity="0" result="BackgroundImageFix"/>
<feGaussianBlur in="BackgroundImageFix" stdDeviation="5.00813"/>
<feComposite in2="SourceAlpha" operator="in" result="effect1_backgroundBlur_0_1"/>
<feBlend mode="normal" in="SourceGraphic" in2="effect1_backgroundBlur_0_1" result="shape"/>
<feColorMatrix in="SourceAlpha" type="matrix" values="0 0 0 0 0 0 0 0 0 0 0 0 0 0 0 0 0 0 127 0" result="hardAlpha"/>
<feOffset dy="2.50406"/>
<feGaussianBlur stdDeviation="5.00813"/>
<feComposite in2="hardAlpha" operator="arithmetic" k2="-1" k3="1"/>
<feColorMatrix type="matrix" values="0 0 0 0 1 0 0 0 0 1 0 0 0 0 1 0 0 0 0.3 0"/>
<feBlend mode="normal" in2="shape" result="effect2_innerShadow_0_1"/>
<feColorMatrix in="SourceAlpha" type="matrix" values="0 0 0 0 0 0 0 0 0 0 0 0 0 0 0 0 0 0 127 0" result="hardAlpha"/>
<feOffset dy="-2.50406"/>
<feGaussianBlur stdDeviation="5.00813"/>
<feComposite in2="hardAlpha" operator="arithmetic" k2="-1" k3="1"/>
<feColorMatrix type="matrix" values="0 0 0 0 1 0 0 0 0 1 0 0 0 0 1 0 0 0 0.5 0"/>
<feBlend mode="normal" in2="effect2_innerShadow_0_1" result="effect3_innerShadow_0_1"/>
<feColorMatrix in="SourceAlpha" type="matrix" values="0 0 0 0 0 0 0 0 0 0 0 0 0 0 0 0 0 0 127 0" result="hardAlpha"/>
<feOffset dy="-2.50406"/>
<feGaussianBlur stdDeviation="1.25203"/>
<feComposite in2="hardAlpha" operator="arithmetic" k2="-1" k3="1"/>
<feColorMatrix type="matrix" values="0 0 0 0 0.879 0 0 0 0 0.725 0 0 0 0 1 0 0 0 0.5 0"/>
<feBlend mode="normal" in2="effect3_innerShadow_0_1" result="effect4_innerShadow_0_1"/>
</filter>
<filter id="filter1_bii_0_1" x="-10.0163" y="44.9681" width="26.2466" height="38.3603" filterUnits="userSpaceOnUse" color-interpolation-filters="sRGB">
<feFlood flood-opacity="0" result="BackgroundImageFix"/>
<feGaussianBlur in="BackgroundImageFix" stdDeviation="5.00813"/>
<feComposite in2="SourceAlpha" operator="in" result="effect1_backgroundBlur_0_1"/>
<feBlend mode="normal" in="SourceGraphic" in2="effect1_backgroundBlur_0_1" result="shape"/>
<feColorMatrix in="SourceAlpha" type="matrix" values="0 0 0 0 0 0 0 0 0 0 0 0 0 0 0 0 0 0 127 0" result="hardAlpha"/>
<feOffset dy="-2.50406"/>
<feGaussianBlur stdDeviation="5.00813"/>
<feComposite in2="hardAlpha" operator="arithmetic" k2="-1" k3="1"/>
<feColorMatrix type="matrix" values="0 0 0 0 1 0 0 0 0 1 0 0 0 0 1 0 0 0 0.5 0"/>
<feBlend mode="normal" in2="shape" result="effect2_innerShadow_0_1"/>
<feColorMatrix in="SourceAlpha" type="matrix" values="0 0 0 0 0 0 0 0 0 0 0 0 0 0 0 0 0 0 127 0" result="hardAlpha"/>
<feOffset dy="-2.50406"/>
<feGaussianBlur stdDeviation="2.5"/>
<feComposite in2="hardAlpha" operator="arithmetic" k2="-1" k3="1"/>
<feColorMatrix type="matrix" values="0 0 0 0 1 0 0 0 0 1 0 0 0 0 1 0 0 0 0.6 0"/>
<feBlend mode="normal" in2="effect2_innerShadow_0_1" result="effect3_innerShadow_0_1"/>
</filter>
<filter id="filter2_biii_0_1" x="-10.0163" y="-10.0163" width="100.032" height="72.0429" filterUnits="userSpaceOnUse" color-interpolation-filters="sRGB">
<feFlood flood-opacity="0" result="BackgroundImageFix"/>
<feGaussianBlur in="BackgroundImageFix" stdDeviation="5.00813"/>
<feComposite in2="SourceAlpha" operator="in" result="effect1_backgroundBlur_0_1"/>
<feBlend mode="normal" in="SourceGraphic" in2="effect1_backgroundBlur_0_1" result="shape"/>
<feColorMatrix in="SourceAlpha" type="matrix" values="0 0 0 0 0 0 0 0 0 0 0 0 0 0 0 0 0 0 127 0" result="hardAlpha"/>
<feOffset dy="2.50406"/>
<feGaussianBlur stdDeviation="5.00813"/>
<feComposite in2="hardAlpha" operator="arithmetic" k2="-1" k3="1"/>
<feColorMatrix type="matrix" values="0 0 0 0 0.879 0 0 0 0 0.725 0 0 0 0 1 0 0 0 0.3 0"/>
<feBlend mode="normal" in2="shape" result="effect2_innerShadow_0_1"/>
<feColorMatrix in="SourceAlpha" type="matrix" values="0 0 0 0 0 0 0 0 0 0 0 0 0 0 0 0 0 0 127 0" result="hardAlpha"/>
<feOffset dy="-2.50406"/>
<feGaussianBlur stdDeviation="5.00813"/>
<feComposite in2="hardAlpha" operator="arithmetic" k2="-1" k3="1"/>
<feColorMatrix type="matrix" values="0 0 0 0 0.918967 0 0 0 0 0.815833 0 0 0 0 1 0 0 0 1 0"/>
<feBlend mode="normal" in2="effect2_innerShadow_0_1" result="effect3_innerShadow_0_1"/>
<feColorMatrix in="SourceAlpha" type="matrix" values="0 0 0 0 0 0 0 0 0 0 0 0 0 0 0 0 0 0 127 0" result="hardAlpha"/>
<feOffset dy="2.50406"/>
<feGaussianBlur stdDeviation="1.25203"/>
<feComposite in2="hardAlpha" operator="arithmetic" k2="-1" k3="1"/>
<feColorMatrix type="matrix" values="0 0 0 0 0.917867 0 0 0 0 0.813333 0 0 0 0 1 0 0 0 1 0"/>
<feBlend mode="normal" in2="effect3_innerShadow_0_1" result="effect4_innerShadow_0_1"/>
</filter>
<filter id="filter3_biii_0_1" x="45.3685" y="38.8548" width="35.4172" height="50.5788" filterUnits="userSpaceOnUse" color-interpolation-filters="sRGB">
<feFlood flood-opacity="0" result="BackgroundImageFix"/>
<feGaussianBlur in="BackgroundImageFix" stdDeviation="5.00813"/>
<feComposite in2="SourceAlpha" operator="in" result="effect1_backgroundBlur_0_1"/>
<feBlend mode="normal" in="SourceGraphic" in2="effect1_backgroundBlur_0_1" result="shape"/>
<feColorMatrix in="SourceAlpha" type="matrix" values="0 0 0 0 0 0 0 0 0 0 0 0 0 0 0 0 0 0 127 0" result="hardAlpha"/>
<feOffset dy="2.50406"/>
<feGaussianBlur stdDeviation="5.00813"/>
<feComposite in2="hardAlpha" operator="arithmetic" k2="-1" k3="1"/>
<feColorMatrix type="matrix" values="0 0 0 0 1 0 0 0 0 1 0 0 0 0 1 0 0 0 0.3 0"/>
<feBlend mode="normal" in2="shape" result="effect2_innerShadow_0_1"/>
<feColorMatrix in="SourceAlpha" type="matrix" values="0 0 0 0 0 0 0 0 0 0 0 0 0 0 0 0 0 0 127 0" result="hardAlpha"/>
<feOffset dy="-2.50406"/>
<feGaussianBlur stdDeviation="5.00813"/>
<feComposite in2="hardAlpha" operator="arithmetic" k2="-1" k3="1"/>
<feColorMatrix type="matrix" values="0 0 0 0 1 0 0 0 0 1 0 0 0 0 1 0 0 0 0.5 0"/>
<feBlend mode="normal" in2="effect2_innerShadow_0_1" result="effect3_innerShadow_0_1"/>
<feColorMatrix in="SourceAlpha" type="matrix" values="0 0 0 0 0 0 0 0 0 0 0 0 0 0 0 0 0 0 127 0" result="hardAlpha"/>
<feOffset dy="-2.50406"/>
<feGaussianBlur stdDeviation="1.25203"/>
<feComposite in2="hardAlpha" operator="arithmetic" k2="-1" k3="1"/>
<feColorMatrix type="matrix" values="0 0 0 0 0.879 0 0 0 0 0.725 0 0 0 0 1 0 0 0 0.5 0"/>
<feBlend mode="normal" in2="effect3_innerShadow_0_1" result="effect4_innerShadow_0_1"/>
</filter>
<filter id="filter4_bii_0_1" x="63.7699" y="44.9681" width="26.2466" height="38.3603" filterUnits="userSpaceOnUse" color-interpolation-filters="sRGB">
<feFlood flood-opacity="0" result="BackgroundImageFix"/>
<feGaussianBlur in="BackgroundImageFix" stdDeviation="5.00813"/>
<feComposite in2="SourceAlpha" operator="in" result="effect1_backgroundBlur_0_1"/>
<feBlend mode="normal" in="SourceGraphic" in2="effect1_backgroundBlur_0_1" result="shape"/>
<feColorMatrix in="SourceAlpha" type="matrix" values="0 0 0 0 0 0 0 0 0 0 0 0 0 0 0 0 0 0 127 0" result="hardAlpha"/>
<feOffset dy="-2.50406"/>
<feGaussianBlur stdDeviation="5.00813"/>
<feComposite in2="hardAlpha" operator="arithmetic" k2="-1" k3="1"/>
<feColorMatrix type="matrix" values="0 0 0 0 1 0 0 0 0 1 0 0 0 0 1 0 0 0 0.5 0"/>
<feBlend mode="normal" in2="shape" result="effect2_innerShadow_0_1"/>
<feColorMatrix in="SourceAlpha" type="matrix" values="0 0 0 0 0 0 0 0 0 0 0 0 0 0 0 0 0 0 127 0" result="hardAlpha"/>
<feOffset dy="-2.50406"/>
<feGaussianBlur stdDeviation="2.5"/>
<feComposite in2="hardAlpha" operator="arithmetic" k2="-1" k3="1"/>
<feColorMatrix type="matrix" values="0 0 0 0 1 0 0 0 0 1 0 0 0 0 1 0 0 0 0.6 0"/>
<feBlend mode="normal" in2="effect2_innerShadow_0_1" result="effect3_innerShadow_0_1"/>
</filter>
</defs>
</svg>
